<mxfile host="app.diagrams.net" modified="2023-06-04T18:00:11.966Z" agent="Mozilla/5.0 (Windows NT 10.0; Win64; x64; rv:109.0) Gecko/20100101 Firefox/113.0" version="21.2.1" etag="yOjhgzB-vzfnGCEw2lYo" type="github">
  <diagram name="Page-1" id="sot15PS__IzyUggOOl4b">
    <mxGraphModel>
      <root>
        <mxCell id="0" />
        <mxCell id="1" parent="0" />
      </root>
    </mxGraphModel>
  </diagram>
</mxfile>
